#N canvas 32 32 1920 966 12;
#X obj 327 247 oscparse;
#X obj -2156 1507 route rgb brightness contrast dominant;
#X obj -1850 1504 route rgb brightness contrast dominant;
#X obj -1126 1502 route rgb brightness contrast dominant;
#X obj -1511 1505 route rgb brightness contrast dominant;
#X obj -2262 1631 unpack f f f;
#X obj -2113 1613 unpack f;
#X obj -1947 1621 unpack f f f;
#X obj -2028 1569 unpack f;
#X floatatom -2043 1730 5 0 0 0 - - - 0;
#X floatatom -2134 1711 5 0 0 0 - - - 0;
#X floatatom -2123 1676 5 0 0 0 - - - 0;
#X obj 300 156 netreceive -u -b 5005;
#X floatatom -2229 1705 5 0 0 0 - - - 0;
#X obj 268 362 route list;
#X obj 256 411 route cell;
#X obj 377 447 route 0 1 2 3;
#X obj -1829 1357 route 0 1 2 3;
#X floatatom -2030 1623 5 0 0 0 - - - 0;
#X floatatom -1863 1685 5 0 0 0 - - - 0;
#X floatatom -1933 1676 5 0 0 0 - - - 0;
#X floatatom -1977 1658 5 0 0 0 - - - 0;
#X obj -1789 1689 unpack f f f;
#X obj -1640 1671 unpack f;
#X obj -1474 1679 unpack f f f;
#X obj -1555 1627 unpack f;
#X floatatom -1557 1779 5 0 0 0 - - - 0;
#X floatatom -1661 1769 5 0 0 0 - - - 0;
#X floatatom -1611 1743 5 0 0 0 - - - 0;
#X floatatom -1756 1763 5 0 0 0 - - - 0;
#X floatatom -1557 1681 5 0 0 0 - - - 0;
#X floatatom -1390 1743 5 0 0 0 - - - 0;
#X floatatom -1460 1734 5 0 0 0 - - - 0;
#X floatatom -1504 1716 5 0 0 0 - - - 0;
#X obj -1353 1668 unpack f f f;
#X obj -1204 1650 unpack f;
#X obj -1038 1658 unpack f f f;
#X obj -1119 1606 unpack f;
#X floatatom -1121 1758 5 0 0 0 - - - 0;
#X floatatom -1225 1748 5 0 0 0 - - - 0;
#X floatatom -1175 1722 5 0 0 0 - - - 0;
#X floatatom -1320 1742 5 0 0 0 - - - 0;
#X floatatom -1121 1660 5 0 0 0 - - - 0;
#X floatatom -954 1722 5 0 0 0 - - - 0;
#X floatatom -1024 1713 5 0 0 0 - - - 0;
#X floatatom -1068 1695 5 0 0 0 - - - 0;
#X obj -912 1669 unpack f f f;
#X obj -763 1651 unpack f;
#X obj -597 1659 unpack f f f;
#X obj -678 1607 unpack f;
#X floatatom -680 1759 5 0 0 0 - - - 0;
#X floatatom -784 1749 5 0 0 0 - - - 0;
#X floatatom -734 1723 5 0 0 0 - - - 0;
#X floatatom -879 1743 5 0 0 0 - - - 0;
#X floatatom -680 1661 5 0 0 0 - - - 0;
#X floatatom -513 1723 5 0 0 0 - - - 0;
#X floatatom -583 1714 5 0 0 0 - - - 0;
#X floatatom -627 1696 5 0 0 0 - - - 0;
#X obj -414 1326 route rgb brightness contrast dominant;
#X obj -108 1323 route rgb brightness contrast dominant;
#X obj 616 1321 route rgb brightness contrast dominant;
#X obj 231 1324 route rgb brightness contrast dominant;
#X obj -520 1450 unpack f f f;
#X obj -371 1432 unpack f;
#X obj -205 1440 unpack f f f;
#X obj -286 1388 unpack f;
#X floatatom -248 1596 5 0 0 0 - - - 0;
#X floatatom -392 1530 5 0 0 0 - - - 0;
#X floatatom -342 1504 5 0 0 0 - - - 0;
#X floatatom -524 1530 5 0 0 0 - - - 0;
#X obj -87 1176 route 0 1 2 3;
#X floatatom -288 1442 5 0 0 0 - - - 0;
#X floatatom -121 1504 5 0 0 0 - - - 0;
#X floatatom -191 1495 5 0 0 0 - - - 0;
#X floatatom -235 1477 5 0 0 0 - - - 0;
#X obj -47 1508 unpack f f f;
#X obj 102 1490 unpack f;
#X obj 268 1498 unpack f f f;
#X obj 187 1446 unpack f;
#X floatatom 185 1598 5 0 0 0 - - - 0;
#X floatatom 81 1588 5 0 0 0 - - - 0;
#X floatatom 131 1562 5 0 0 0 - - - 0;
#X floatatom -14 1582 5 0 0 0 - - - 0;
#X floatatom 185 1500 5 0 0 0 - - - 0;
#X floatatom 352 1562 5 0 0 0 - - - 0;
#X floatatom 282 1553 5 0 0 0 - - - 0;
#X floatatom 238 1535 5 0 0 0 - - - 0;
#X obj 389 1487 unpack f f f;
#X obj 538 1469 unpack f;
#X obj 704 1477 unpack f f f;
#X obj 623 1425 unpack f;
#X floatatom 621 1577 5 0 0 0 - - - 0;
#X floatatom 517 1567 5 0 0 0 - - - 0;
#X floatatom 567 1541 5 0 0 0 - - - 0;
#X floatatom 422 1561 5 0 0 0 - - - 0;
#X floatatom 621 1479 5 0 0 0 - - - 0;
#X floatatom 788 1541 5 0 0 0 - - - 0;
#X floatatom 718 1532 5 0 0 0 - - - 0;
#X floatatom 674 1514 5 0 0 0 - - - 0;
#X obj 830 1488 unpack f f f;
#X obj 979 1470 unpack f;
#X obj 1145 1478 unpack f f f;
#X obj 1064 1426 unpack f;
#X floatatom 1062 1578 5 0 0 0 - - - 0;
#X floatatom 958 1568 5 0 0 0 - - - 0;
#X floatatom 1008 1542 5 0 0 0 - - - 0;
#X floatatom 863 1562 5 0 0 0 - - - 0;
#X floatatom 1062 1480 5 0 0 0 - - - 0;
#X floatatom 1229 1542 5 0 0 0 - - - 0;
#X floatatom 1159 1533 5 0 0 0 - - - 0;
#X floatatom 1115 1515 5 0 0 0 - - - 0;
#X obj 1666 1339 route rgb brightness contrast dominant;
#X obj 1972 1336 route rgb brightness contrast dominant;
#X obj 2696 1334 route rgb brightness contrast dominant;
#X obj 2311 1337 route rgb brightness contrast dominant;
#X obj 1560 1463 unpack f f f;
#X obj 1709 1445 unpack f;
#X obj 1875 1453 unpack f f f;
#X obj 1794 1401 unpack f;
#X floatatom 1792 1553 5 0 0 0 - - - 0;
#X floatatom 1688 1543 5 0 0 0 - - - 0;
#X floatatom 1738 1517 5 0 0 0 - - - 0;
#X floatatom 1593 1537 5 0 0 0 - - - 0;
#X obj 1522 876 route 0 1 2 3;
#X floatatom 1792 1455 5 0 0 0 - - - 0;
#X floatatom 1959 1517 5 0 0 0 - - - 0;
#X floatatom 1889 1508 5 0 0 0 - - - 0;
#X floatatom 1845 1490 5 0 0 0 - - - 0;
#X obj 2033 1521 unpack f f f;
#X obj 2182 1503 unpack f;
#X obj 2348 1511 unpack f f f;
#X obj 2267 1459 unpack f;
#X floatatom 2265 1611 5 0 0 0 - - - 0;
#X floatatom 2161 1601 5 0 0 0 - - - 0;
#X floatatom 2211 1575 5 0 0 0 - - - 0;
#X floatatom 2066 1595 5 0 0 0 - - - 0;
#X floatatom 2265 1513 5 0 0 0 - - - 0;
#X floatatom 2432 1575 5 0 0 0 - - - 0;
#X floatatom 2362 1566 5 0 0 0 - - - 0;
#X floatatom 2318 1548 5 0 0 0 - - - 0;
#X obj 2469 1500 unpack f f f;
#X obj 2618 1482 unpack f;
#X obj 2784 1490 unpack f f f;
#X obj 2703 1438 unpack f;
#X floatatom 2701 1590 5 0 0 0 - - - 0;
#X floatatom 2597 1580 5 0 0 0 - - - 0;
#X floatatom 2647 1554 5 0 0 0 - - - 0;
#X floatatom 2502 1574 5 0 0 0 - - - 0;
#X floatatom 2701 1492 5 0 0 0 - - - 0;
#X floatatom 2868 1554 5 0 0 0 - - - 0;
#X floatatom 2798 1545 5 0 0 0 - - - 0;
#X floatatom 2754 1527 5 0 0 0 - - - 0;
#X obj 2910 1501 unpack f f f;
#X obj 3059 1483 unpack f;
#X obj 3225 1491 unpack f f f;
#X obj 3144 1439 unpack f;
#X floatatom 3142 1591 5 0 0 0 - - - 0;
#X floatatom 3038 1581 5 0 0 0 - - - 0;
#X floatatom 3088 1555 5 0 0 0 - - - 0;
#X floatatom 2943 1575 5 0 0 0 - - - 0;
#X floatatom 3142 1493 5 0 0 0 - - - 0;
#X floatatom 3309 1555 5 0 0 0 - - - 0;
#X floatatom 3239 1546 5 0 0 0 - - - 0;
#X floatatom 3195 1528 5 0 0 0 - - - 0;
#X obj 3434 1231 route rgb brightness contrast dominant;
#X obj 3856 1122 route rgb brightness contrast dominant;
#X obj 4968 1042 route rgb brightness contrast dominant;
#X obj 4286 1113 route rgb brightness contrast dominant;
#X obj 3328 1355 unpack f f f;
#X obj 3477 1337 unpack f;
#X obj 3643 1345 unpack f f f;
#X obj 3562 1293 unpack f;
#X floatatom 3560 1445 5 0 0 0 - - - 0;
#X floatatom 3456 1435 5 0 0 0 - - - 0;
#X floatatom 3506 1409 5 0 0 0 - - - 0;
#X floatatom 3361 1429 5 0 0 0 - - - 0;
#X obj 1559 664 route 0 1 2 3;
#X floatatom 3560 1347 5 0 0 0 - - - 0;
#X floatatom 3727 1409 5 0 0 0 - - - 0;
#X floatatom 3657 1400 5 0 0 0 - - - 0;
#X floatatom 3613 1382 5 0 0 0 - - - 0;
#X obj 3801 1413 unpack f f f;
#X obj 3950 1395 unpack f;
#X obj 4116 1403 unpack f f f;
#X obj 4035 1351 unpack f;
#X floatatom 4033 1503 5 0 0 0 - - - 0;
#X floatatom 3929 1493 5 0 0 0 - - - 0;
#X floatatom 3979 1467 5 0 0 0 - - - 0;
#X floatatom 3834 1487 5 0 0 0 - - - 0;
#X floatatom 4033 1405 5 0 0 0 - - - 0;
#X floatatom 4200 1467 5 0 0 0 - - - 0;
#X floatatom 4130 1458 5 0 0 0 - - - 0;
#X floatatom 4086 1440 5 0 0 0 - - - 0;
#X obj 4237 1392 unpack f f f;
#X obj 4386 1374 unpack f;
#X obj 4552 1382 unpack f f f;
#X obj 4471 1330 unpack f;
#X floatatom 4469 1482 5 0 0 0 - - - 0;
#X floatatom 4365 1472 5 0 0 0 - - - 0;
#X floatatom 4415 1446 5 0 0 0 - - - 0;
#X floatatom 4270 1466 5 0 0 0 - - - 0;
#X floatatom 4469 1384 5 0 0 0 - - - 0;
#X floatatom 4636 1446 5 0 0 0 - - - 0;
#X floatatom 4566 1437 5 0 0 0 - - - 0;
#X floatatom 4522 1419 5 0 0 0 - - - 0;
#X obj 4678 1393 unpack f f f;
#X obj 4827 1375 unpack f;
#X obj 4993 1383 unpack f f f;
#X obj 4912 1331 unpack f;
#X floatatom 4910 1483 5 0 0 0 - - - 0;
#X floatatom 4806 1473 5 0 0 0 - - - 0;
#X floatatom 4856 1447 5 0 0 0 - - - 0;
#X floatatom 4711 1467 5 0 0 0 - - - 0;
#X floatatom 4910 1385 5 0 0 0 - - - 0;
#X floatatom 5077 1447 5 0 0 0 - - - 0;
#X floatatom 5007 1438 5 0 0 0 - - - 0;
#X floatatom 4963 1420 5 0 0 0 - - - 0;
#X obj -2205 2089 dac~;
#X obj -2131 1802 * 880;
#X obj -2181 1846 + 220;
#X obj -2199 1982 *~ 0.1;
#X obj -2180 1896 phasor~;
#X obj -2023 2061 dac~;
#X obj -2054 2003 *~ 0.1;
#X obj -1986 1823 expr 1 - $f1;
#X obj -2036 1867 expr 200 + $f1 * 800;
#X obj -2035 1917 osc~;
#X obj -155 1752 vsl 19 162 0 0.7 0 0 empty empty empty 0 -9 0 12 #fcfcfc #000000 #000000 0 1;
#X obj -345 1978 metro 500;
#X obj -325 2035 bng 19 250 50 0 empty empty empty 0 -10 0 12 #fcfcfc #000000 #000000;
#X msg -166 1986 60;
#X obj -119 2084 noteout;
#X msg -36 1973 127;
#X msg 54 1990 10;
#X floatatom -280 1921 5 0 0 0 - - - 0;
#X obj -327 1707 tgl 19 0 empty empty empty 0 -10 0 12 #fcfcfc #000000 #000000 0 1;
#X connect 0 0 14 0;
#X connect 1 0 5 0;
#X connect 1 1 6 0;
#X connect 1 2 8 0;
#X connect 1 3 7 0;
#X connect 2 0 22 0;
#X connect 2 1 23 0;
#X connect 2 2 25 0;
#X connect 2 3 24 0;
#X connect 3 0 46 0;
#X connect 3 1 47 0;
#X connect 3 2 49 0;
#X connect 3 3 48 0;
#X connect 4 0 34 0;
#X connect 4 1 35 0;
#X connect 4 2 37 0;
#X connect 4 3 36 0;
#X connect 5 0 13 0;
#X connect 5 1 10 0;
#X connect 5 2 11 0;
#X connect 6 0 9 0;
#X connect 7 0 21 0;
#X connect 7 1 20 0;
#X connect 7 2 19 0;
#X connect 8 0 18 0;
#X connect 9 0 218 0;
#X connect 12 0 0 0;
#X connect 14 0 15 0;
#X connect 15 0 16 0;
#X connect 16 0 17 0;
#X connect 16 1 70 0;
#X connect 16 2 123 0;
#X connect 16 3 176 0;
#X connect 17 0 1 0;
#X connect 17 1 2 0;
#X connect 17 2 4 0;
#X connect 17 3 3 0;
#X connect 21 0 224 0;
#X connect 22 0 29 0;
#X connect 22 1 27 0;
#X connect 22 2 28 0;
#X connect 23 0 26 0;
#X connect 24 0 33 0;
#X connect 24 1 32 0;
#X connect 24 2 31 0;
#X connect 25 0 30 0;
#X connect 34 0 41 0;
#X connect 34 1 39 0;
#X connect 34 2 40 0;
#X connect 35 0 38 0;
#X connect 36 0 45 0;
#X connect 36 1 44 0;
#X connect 36 2 43 0;
#X connect 37 0 42 0;
#X connect 46 0 53 0;
#X connect 46 1 51 0;
#X connect 46 2 52 0;
#X connect 47 0 50 0;
#X connect 48 0 57 0;
#X connect 48 1 56 0;
#X connect 48 2 55 0;
#X connect 49 0 54 0;
#X connect 58 0 62 0;
#X connect 58 1 63 0;
#X connect 58 2 65 0;
#X connect 58 3 64 0;
#X connect 59 0 75 0;
#X connect 59 1 76 0;
#X connect 59 2 78 0;
#X connect 59 3 77 0;
#X connect 60 0 99 0;
#X connect 60 1 100 0;
#X connect 60 2 102 0;
#X connect 60 3 101 0;
#X connect 61 0 87 0;
#X connect 61 1 88 0;
#X connect 61 2 90 0;
#X connect 61 3 89 0;
#X connect 62 0 69 0;
#X connect 62 1 67 0;
#X connect 62 2 68 0;
#X connect 63 0 66 0;
#X connect 64 0 74 0;
#X connect 64 1 73 0;
#X connect 64 2 72 0;
#X connect 65 0 71 0;
#X connect 66 0 235 0;
#X connect 70 0 58 0;
#X connect 70 1 59 0;
#X connect 70 2 61 0;
#X connect 70 3 60 0;
#X connect 72 0 227 0;
#X connect 75 0 82 0;
#X connect 75 1 80 0;
#X connect 75 2 81 0;
#X connect 76 0 79 0;
#X connect 77 0 86 0;
#X connect 77 1 85 0;
#X connect 77 2 84 0;
#X connect 78 0 83 0;
#X connect 87 0 94 0;
#X connect 87 1 92 0;
#X connect 87 2 93 0;
#X connect 88 0 91 0;
#X connect 89 0 98 0;
#X connect 89 1 97 0;
#X connect 89 2 96 0;
#X connect 90 0 95 0;
#X connect 99 0 106 0;
#X connect 99 1 104 0;
#X connect 99 2 105 0;
#X connect 100 0 103 0;
#X connect 101 0 110 0;
#X connect 101 1 109 0;
#X connect 101 2 108 0;
#X connect 102 0 107 0;
#X connect 111 0 115 0;
#X connect 111 1 116 0;
#X connect 111 2 118 0;
#X connect 111 3 117 0;
#X connect 112 0 128 0;
#X connect 112 1 129 0;
#X connect 112 2 131 0;
#X connect 112 3 130 0;
#X connect 113 0 152 0;
#X connect 113 1 153 0;
#X connect 113 2 155 0;
#X connect 113 3 154 0;
#X connect 114 0 140 0;
#X connect 114 1 141 0;
#X connect 114 2 143 0;
#X connect 114 3 142 0;
#X connect 115 0 122 0;
#X connect 115 1 120 0;
#X connect 115 2 121 0;
#X connect 116 0 119 0;
#X connect 117 0 127 0;
#X connect 117 1 126 0;
#X connect 117 2 125 0;
#X connect 118 0 124 0;
#X connect 123 0 111 0;
#X connect 123 1 112 0;
#X connect 123 2 114 0;
#X connect 123 3 113 0;
#X connect 128 0 135 0;
#X connect 128 1 133 0;
#X connect 128 2 134 0;
#X connect 129 0 132 0;
#X connect 130 0 139 0;
#X connect 130 1 138 0;
#X connect 130 2 137 0;
#X connect 131 0 136 0;
#X connect 140 0 147 0;
#X connect 140 1 145 0;
#X connect 140 2 146 0;
#X connect 141 0 144 0;
#X connect 142 0 151 0;
#X connect 142 1 150 0;
#X connect 142 2 149 0;
#X connect 143 0 148 0;
#X connect 152 0 159 0;
#X connect 152 1 157 0;
#X connect 152 2 158 0;
#X connect 153 0 156 0;
#X connect 154 0 163 0;
#X connect 154 1 162 0;
#X connect 154 2 161 0;
#X connect 155 0 160 0;
#X connect 164 0 168 0;
#X connect 164 1 169 0;
#X connect 164 2 171 0;
#X connect 164 3 170 0;
#X connect 165 0 181 0;
#X connect 165 1 182 0;
#X connect 165 2 184 0;
#X connect 165 3 183 0;
#X connect 166 0 205 0;
#X connect 166 1 206 0;
#X connect 166 2 208 0;
#X connect 166 3 207 0;
#X connect 167 0 193 0;
#X connect 167 1 194 0;
#X connect 167 2 196 0;
#X connect 167 3 195 0;
#X connect 168 0 175 0;
#X connect 168 1 173 0;
#X connect 168 2 174 0;
#X connect 169 0 172 0;
#X connect 170 0 180 0;
#X connect 170 1 179 0;
#X connect 170 2 178 0;
#X connect 171 0 177 0;
#X connect 176 0 164 0;
#X connect 176 1 165 0;
#X connect 176 2 167 0;
#X connect 176 3 166 0;
#X connect 181 0 188 0;
#X connect 181 1 186 0;
#X connect 181 2 187 0;
#X connect 182 0 185 0;
#X connect 183 0 192 0;
#X connect 183 1 191 0;
#X connect 183 2 190 0;
#X connect 184 0 189 0;
#X connect 193 0 200 0;
#X connect 193 1 198 0;
#X connect 193 2 199 0;
#X connect 194 0 197 0;
#X connect 195 0 204 0;
#X connect 195 1 203 0;
#X connect 195 2 202 0;
#X connect 196 0 201 0;
#X connect 205 0 212 0;
#X connect 205 1 210 0;
#X connect 205 2 211 0;
#X connect 206 0 209 0;
#X connect 207 0 216 0;
#X connect 207 1 215 0;
#X connect 207 2 214 0;
#X connect 208 0 213 0;
#X connect 218 0 219 0;
#X connect 219 0 221 0;
#X connect 220 0 217 0;
#X connect 221 0 220 0;
#X connect 223 0 222 0;
#X connect 224 0 225 0;
#X connect 225 0 226 0;
#X connect 226 0 223 0;
#X connect 227 0 234 0;
#X connect 228 0 229 0;
#X connect 229 0 230 0;
#X connect 229 0 232 0;
#X connect 229 0 233 0;
#X connect 230 0 231 0;
#X connect 232 0 231 1;
#X connect 233 0 231 2;
#X connect 234 0 228 1;
#X connect 235 0 228 0;
